<svg width="24" height="24" viewBox="0 0 24 24" fill="none" xmlns="http://www.w3.org/2000/svg">
<path d="M22 16.3249C21.9971 15.853 21.7956 15.4049 21.444 15.0906V4.65154C21.4364 3.81752 20.8125 3.11632 19.9842 3.01314C19.156 2.90901 18.3783 3.4335 18.1643 4.24074C14.0754 3.61213 9.9141 3.61213 5.82519 4.24074C5.6112 3.43348 4.83355 2.90901 4.00528 3.01314C3.177 3.11632 2.55316 3.81755 2.54551 4.65154V15.0906C2.19776 15.4068 2 15.8549 2 16.3249C2 16.794 2.19775 17.2421 2.54551 17.5583V19.104C2.54551 20.025 3.29258 20.7711 4.21352 20.7711C5.13446 20.7711 5.88059 20.025 5.88059 19.104V17.992H18.1089V19.104C18.1089 20.025 18.855 20.7711 19.776 20.7711C20.6969 20.7711 21.444 20.025 21.444 19.104V17.5583C21.7956 17.244 21.9971 16.7959 22 16.3249ZM3.6575 16.88C3.34989 16.88 3.1015 16.6316 3.1015 16.3249C3.1015 16.0173 3.34989 15.7689 3.6575 15.7689H20.3321C20.6397 15.7689 20.8881 16.0173 20.8881 16.3249C20.8881 16.6316 20.6397 16.88 20.3321 16.88H3.6575ZM19.7759 4.09647C19.924 4.09647 20.0654 4.15475 20.1695 4.25888C20.2736 4.36301 20.3319 4.5044 20.3319 4.65153V9.65463C20.0062 9.3986 19.6259 9.22187 19.2209 9.13779V4.65146C19.2209 4.3448 19.4692 4.09647 19.7759 4.09647ZM18.1088 5.35849V9.09864H16.4418V7.98663C16.4418 7.06569 15.6947 6.31956 14.7738 6.31956H9.2155C8.29456 6.31956 7.54748 7.06569 7.54748 7.98663V9.09864H5.88042V5.35751C9.93093 4.71838 14.0582 4.71838 18.1087 5.35751L18.1088 5.35849ZM12.5506 9.09864V7.43063H14.7736C14.9208 7.43063 15.0622 7.48986 15.1663 7.59399C15.2714 7.69812 15.3297 7.83951 15.3297 7.98664V9.09866L12.5506 9.09864ZM8.65952 9.09864V7.98663C8.65952 7.67996 8.90886 7.43063 9.21552 7.43063H11.4386V9.09769L8.65952 9.09864ZM4.2133 4.09652C4.36043 4.09652 4.50182 4.1548 4.60596 4.25893C4.71009 4.36306 4.76836 4.50445 4.76836 4.65158V9.15405C4.36522 9.23335 3.98404 9.40434 3.6573 9.65466V4.65156C3.6573 4.3449 3.90569 4.09652 4.2133 4.09652ZM3.65731 11.8777C3.65731 10.9567 4.40343 10.2106 5.32437 10.2106H18.6647C19.5857 10.2106 20.3318 10.9567 20.3318 11.8777V14.6567H3.65726L3.65731 11.8777ZM4.76837 19.1039C4.76837 19.4105 4.51999 19.6589 4.21333 19.6589C3.90571 19.6589 3.65733 19.4105 3.65733 19.1039V17.9918H4.7684L4.76837 19.1039ZM20.3319 19.1039C20.3319 19.4105 20.0835 19.6589 19.7759 19.6589C19.4692 19.6589 19.2208 19.4105 19.2208 19.1039V17.9918H20.3328L20.3319 19.1039Z" fill="#FFBB00"/>
</svg>
