<svg width="32" height="32" viewBox="0 0 32 32" fill="none" xmlns="http://www.w3.org/2000/svg">
<path d="M26 21C26.5128 21 26.9355 21.386 26.9933 21.8834L27 22V28C27 28.5523 26.5523 29 26 29C25.4872 29 25.0645 28.614 25.0067 28.1166L25 28V22C25 21.4477 25.4477 21 26 21Z" fill="#464646"/>
<path d="M29 24C29.5523 24 30 24.4477 30 25C30 25.5128 29.614 25.9355 29.1166 25.9933L29 26H23C22.4477 26 22 25.5523 22 25C22 24.4872 22.386 24.0645 22.8834 24.0067L23 24H29Z" fill="#464646"/>
<path d="M7 4V6H6C5.48716 6 5.06449 6.38604 5.00673 6.88338L5 7V27C5 27.5128 5.38604 27.9355 5.88338 27.9933L6 28H20V30H6C4.40232 30 3.09634 28.7511 3.00509 27.1763L3 27V7C3 5.40232 4.24892 4.09634 5.82373 4.00509L6 4H7Z" fill="#464646"/>
<path d="M26 4C27.5977 4 28.9037 5.24892 28.9949 6.82373L29 7V19H27V7C27 6.48716 26.614 6.06449 26.1166 6.00673L26 6H25V4H26Z" fill="#464646"/>
<path d="M15 24V22H17V24H15Z" fill="#464646"/>
<path d="M9 24V22H11V24H9Z" fill="#464646"/>
<path d="M21 18V16H23V18H21Z" fill="#464646"/>
<path d="M15 18V16H17V18H15Z" fill="#464646"/>
<path d="M9 18V16H11V18H9Z" fill="#464646"/>
<path d="M4 12V10L28 10V12H4Z" fill="#464646"/>
<path d="M22 8C21.4872 8 21.0645 7.61396 21.0067 7.11662L21 7V3C21 2.44772 21.4477 2 22 2C22.5128 2 22.9355 2.38604 22.9933 2.88338L23 3V7C23 7.55228 22.5523 8 22 8Z" fill="#464646"/>
<path d="M13 6V4L19 4V6H13Z" fill="#464646"/>
<path d="M10 8C9.48716 8 9.06449 7.61396 9.00673 7.11662L9 7V3C9 2.44772 9.44772 2 10 2C10.5128 2 10.9355 2.38604 10.9933 2.88338L11 3V7C11 7.55228 10.5523 8 10 8Z" fill="#464646"/>
</svg>
