<svg width="24" height="24" viewBox="0 0 24 24" fill="none" xmlns="http://www.w3.org/2000/svg">
<path d="M21.4304 5.20196H20.3252V4.39766C20.3253 4.34543 20.315 4.2937 20.295 4.24544C20.275 4.19718 20.2458 4.15333 20.2088 4.1164C20.1719 4.07947 20.128 4.05018 20.0798 4.03021C20.0315 4.01023 19.9798 3.99997 19.9276 4H18.0694C18.0172 3.99997 17.9654 4.01023 17.9172 4.03021C17.8689 4.05018 17.8251 4.07947 17.7881 4.1164C17.7512 4.15333 17.7219 4.19718 17.7019 4.24544C17.682 4.2937 17.6717 4.34543 17.6717 4.39766V5.20196H6.32826V4.39766C6.32829 4.34543 6.31802 4.2937 6.29805 4.24544C6.27808 4.19718 6.24879 4.15333 6.21186 4.1164C6.17492 4.07947 6.13108 4.05018 6.08282 4.03021C6.03456 4.01023 5.98283 3.99997 5.9306 4H4.07243C4.0202 3.99997 3.96848 4.01023 3.92022 4.03021C3.87196 4.05018 3.82811 4.07947 3.79118 4.1164C3.75424 4.15333 3.72495 4.19718 3.70498 4.24544C3.68501 4.2937 3.67474 4.34543 3.67477 4.39766V5.20196H2.56957C2.15343 5.2024 1.75446 5.3679 1.4602 5.66216C1.16594 5.95641 1.00044 6.35539 1 6.77153V18.2567C1.00044 18.6729 1.16594 19.0718 1.4602 19.3661C1.75446 19.6603 2.15343 19.8258 2.56957 19.8263H21.4304C21.8466 19.8258 22.2455 19.6603 22.5398 19.3661C22.8341 19.0718 22.9996 18.6729 23 18.2567V6.77153C22.9996 6.35539 22.8341 5.95641 22.5398 5.66216C22.2455 5.3679 21.8466 5.2024 21.4304 5.20196ZM12.9247 17.5326H11.0753V16.8255H12.9247V17.5326ZM15.0495 15.7929C17.1016 15.8206 18.7119 15.4899 19.9671 14.7857C20.5687 14.4437 21.1134 14.0103 21.5818 13.5009C20.7312 15.0122 19.5314 16.2982 18.0827 17.2515C16.634 18.2049 14.9783 18.7979 13.2538 18.9813C14.1603 18.3622 14.8678 17.4836 15.0495 15.7929ZM17.7664 14.5288V13.8212H19.616V14.0755C19.2968 14.2573 18.9614 14.4088 18.614 14.5281L17.7664 14.5288ZM18.4668 4.79626H19.5302V6.78004H18.4668V4.79626ZM4.46985 4.79626H5.53437V6.78004H4.46985V4.79626ZM2.56957 5.99703H3.67477V7.1777C3.67474 7.22993 3.68501 7.28165 3.70498 7.32991C3.72495 7.37817 3.75424 7.42202 3.79118 7.45895C3.82811 7.49589 3.87196 7.52518 3.92022 7.54515C3.96848 7.56512 4.0202 7.57539 4.07243 7.57535H5.9306C5.98283 7.57539 6.03456 7.56512 6.08282 7.54515C6.13108 7.52518 6.17492 7.49589 6.21186 7.45895C6.24879 7.42202 6.27808 7.37817 6.29805 7.32991C6.31802 7.28165 6.32829 7.22993 6.32826 7.1777V5.99703H17.6717V7.1777C17.6717 7.22993 17.682 7.28165 17.7019 7.32991C17.7219 7.37817 17.7512 7.42202 17.7881 7.45895C17.8251 7.49589 17.8689 7.52518 17.9172 7.54515C17.9654 7.56512 18.0172 7.57539 18.0694 7.57535H19.9276C19.9798 7.57539 20.0315 7.56512 20.0798 7.54515C20.128 7.52518 20.1719 7.49589 20.2088 7.45895C20.2458 7.42202 20.275 7.37817 20.295 7.32991C20.315 7.28165 20.3253 7.22993 20.3252 7.1777V5.99703H21.4304C21.6358 5.99728 21.8326 6.07896 21.9778 6.22415C22.123 6.36934 22.2047 6.56619 22.2049 6.77153V8.38226H1.79508V6.77153C1.79533 6.56619 1.877 6.36934 2.0222 6.22415C2.16739 6.07896 2.36424 5.99728 2.56957 5.99703ZM1.79508 18.2567V9.17733H22.2049V11.4982C22.0852 11.6446 21.9669 11.7949 21.8517 11.9413C21.429 12.5175 20.946 13.0469 20.4111 13.5208V13.4236C20.4112 13.3713 20.401 13.3195 20.381 13.2712C20.3611 13.2228 20.3318 13.1789 20.2949 13.1419C20.2579 13.1049 20.2141 13.0756 20.1658 13.0555C20.1175 13.0355 20.0657 13.0252 20.0134 13.0252H17.3687C17.2633 13.0253 17.1622 13.0672 17.0877 13.1418C17.0132 13.2163 16.9713 13.3174 16.9713 13.4229V14.8999C16.2167 14.9906 15.4561 15.0202 14.6968 14.9886C14.593 14.9852 14.492 15.0225 14.4153 15.0926C14.3387 15.1626 14.2925 15.2599 14.2866 15.3636C14.2345 16.28 14.0429 16.9225 13.7188 17.4183V16.4279C13.719 16.3225 13.6774 16.2213 13.603 16.1466C13.5287 16.0719 13.4277 16.0298 13.3224 16.0295H10.6776C10.5722 16.0295 10.4711 16.0714 10.3965 16.1459C10.322 16.2204 10.28 16.3215 10.28 16.4269V17.9291C10.28 18.0345 10.3219 18.1357 10.3964 18.2103C10.471 18.2848 10.5722 18.3267 10.6776 18.3267H12.7906C12.3815 18.5904 11.9547 18.8255 11.5132 19.0303H2.56957C2.3644 19.03 2.16769 18.9485 2.02253 18.8035C1.87737 18.6585 1.79558 18.4619 1.79508 18.2567ZM21.4295 19.0312H16.3671C18.8245 18.0666 20.8824 16.2976 22.2049 14.0128V18.2567C22.2047 18.462 22.123 18.6589 21.9778 18.8041C21.8326 18.9493 21.6358 19.031 21.4304 19.0312H21.4295ZM6.63129 10.0209H3.98656C3.93433 10.0209 3.88261 10.0311 3.83435 10.0511C3.78609 10.0711 3.74224 10.1004 3.7053 10.1373C3.66837 10.1742 3.63908 10.2181 3.61911 10.2663C3.59914 10.3146 3.58887 10.3663 3.5889 10.4186V11.9207C3.5889 11.9729 3.59919 12.0246 3.61918 12.0729C3.63916 12.1211 3.66846 12.1649 3.70539 12.2018C3.74232 12.2387 3.78616 12.268 3.8344 12.2879C3.88265 12.3079 3.93435 12.3182 3.98656 12.3181H6.63129C6.73669 12.3181 6.83778 12.2763 6.91231 12.2017C6.98684 12.1272 7.02871 12.0261 7.02871 11.9207V10.4186C7.02874 10.3663 7.01848 10.3146 6.99853 10.2664C6.97857 10.2182 6.9493 10.1743 6.91239 10.1374C6.87549 10.1005 6.83166 10.0712 6.78343 10.0512C6.7352 10.0312 6.6835 10.0209 6.63129 10.0209ZM6.23363 11.5231H4.38398V10.8167H6.23363V11.5231ZM10.6776 12.3188H13.3224C13.4278 12.3188 13.5289 12.277 13.6035 12.2025C13.678 12.1279 13.72 12.0268 13.72 11.9214V10.4193C13.7201 10.367 13.7099 10.3152 13.69 10.2669C13.67 10.2185 13.6407 10.1746 13.6038 10.1376C13.5669 10.1006 13.523 10.0713 13.4747 10.0512C13.4264 10.0312 13.3746 10.0209 13.3224 10.0209H10.6776C10.5722 10.0209 10.471 10.0628 10.3964 10.1374C10.3219 10.2119 10.28 10.3131 10.28 10.4186V11.9207C10.2799 11.973 10.2902 12.0247 10.3101 12.073C10.3301 12.1213 10.3593 12.1652 10.3963 12.2022C10.4332 12.2392 10.4771 12.2685 10.5253 12.2885C10.5736 12.3085 10.6254 12.3188 10.6776 12.3188ZM11.0753 10.8167H12.9247V11.5238H11.0753V10.8167ZM17.3678 12.3188H20.0125C20.0647 12.3189 20.1164 12.3086 20.1647 12.2887C20.2129 12.2687 20.2567 12.2394 20.2937 12.2025C20.3306 12.1656 20.3599 12.1218 20.3799 12.0736C20.3999 12.0253 20.4102 11.9736 20.4102 11.9214V10.4193C20.4103 10.3671 20.4001 10.3153 20.3802 10.2671C20.3604 10.2188 20.3312 10.1749 20.2943 10.1379C20.2575 10.1009 20.2137 10.0715 20.1655 10.0514C20.1173 10.0314 20.0657 10.021 20.0134 10.0209H17.3687C17.3165 10.0209 17.2648 10.0312 17.2166 10.0512C17.1683 10.0712 17.1245 10.1005 17.0876 10.1374C17.0507 10.1743 17.0214 10.2182 17.0015 10.2664C16.9815 10.3146 16.9713 10.3663 16.9713 10.4186V11.9207C16.9712 11.973 16.9814 12.0247 17.0013 12.073C17.0213 12.1213 17.0505 12.1652 17.0874 12.2022C17.1244 12.2392 17.1682 12.2685 17.2165 12.2885C17.2647 12.3085 17.3165 12.3188 17.3687 12.3188H17.3678ZM17.7654 10.8167H19.6151V11.5238H17.7664L17.7654 10.8167ZM6.63129 13.0252H3.98656C3.88109 13.0252 3.77995 13.0671 3.70537 13.1417C3.6308 13.2162 3.5889 13.3174 3.5889 13.4229V14.925C3.5889 15.0305 3.6308 15.1316 3.70537 15.2062C3.77995 15.2808 3.88109 15.3227 3.98656 15.3227H6.63129C6.73671 15.3226 6.8378 15.2807 6.91232 15.2061C6.98685 15.1315 7.02871 15.0304 7.02871 14.925V13.4229C7.02871 13.3174 6.98685 13.2163 6.91232 13.1418C6.8378 13.0672 6.73671 13.0253 6.63129 13.0252ZM6.23363 14.5274H4.38398V13.8212H6.23363V14.5274ZM10.6776 15.3234H13.3224C13.4278 15.3233 13.5289 15.2814 13.6035 15.2068C13.678 15.1323 13.72 15.0312 13.72 14.9257V13.4236C13.7201 13.3713 13.7098 13.3195 13.6899 13.2712C13.6699 13.2229 13.6407 13.179 13.6037 13.142C13.5668 13.105 13.5229 13.0756 13.4747 13.0556C13.4264 13.0356 13.3746 13.0252 13.3224 13.0252H10.6776C10.5722 13.0253 10.4711 13.0672 10.3965 13.1417C10.322 13.2163 10.28 13.3174 10.28 13.4229V14.925C10.2799 14.9773 10.2902 15.0291 10.3101 15.0774C10.3301 15.1257 10.3593 15.1696 10.3963 15.2066C10.4332 15.2436 10.4771 15.2729 10.5253 15.293C10.5736 15.313 10.6254 15.3233 10.6776 15.3234ZM11.0753 13.8212H12.9247V14.5281H11.0753V13.8212ZM6.63129 16.0295H3.98656C3.93435 16.0295 3.88265 16.0397 3.8344 16.0597C3.78616 16.0796 3.74232 16.1089 3.70539 16.1458C3.66846 16.1827 3.63916 16.2266 3.61918 16.2748C3.59919 16.323 3.5889 16.3747 3.5889 16.4269V17.9291C3.58887 17.9813 3.59914 18.033 3.61911 18.0813C3.63908 18.1295 3.66837 18.1734 3.7053 18.2103C3.74224 18.2473 3.78609 18.2766 3.83435 18.2965C3.88261 18.3165 3.93433 18.3268 3.98656 18.3267H6.63129C6.6835 18.3267 6.7352 18.3164 6.78343 18.2965C6.83166 18.2765 6.87549 18.2472 6.91239 18.2102C6.9493 18.1733 6.97857 18.1295 6.99853 18.0812C7.01848 18.033 7.02874 17.9813 7.02871 17.9291V16.4269C7.02871 16.3215 6.98684 16.2204 6.91231 16.1459C6.83778 16.0714 6.73669 16.0295 6.63129 16.0295ZM6.23363 17.5317H4.38398V16.8255H6.23363V17.5317Z" fill="#FFBB00"/>
</svg>
