<svg width="40" height="40" viewBox="0 0 40 40" fill="none" xmlns="http://www.w3.org/2000/svg">
<g clip-path="url(#clip0_2737_24312)">
<path d="M40 20C40 8.9543 31.0457 0 20 0C8.9543 0 0 8.9543 0 20C0 31.0457 8.9543 40 20 40C31.0457 40 40 31.0457 40 20Z" fill="#FFBB00"/>
<path d="M17.2091 20.1466L11.9247 12.5905C11.8719 12.515 11.8424 12.4307 11.8367 12.3471C11.8317 12.2641 11.8505 12.1767 11.8939 12.0931C11.9379 12.0088 11.9977 11.9434 12.0675 11.9013C12.1373 11.8592 12.2228 11.8359 12.319 11.8359H27.0326C27.1288 11.8359 27.2143 11.8592 27.2841 11.9013C27.3539 11.9434 27.4136 12.0088 27.4577 12.0931C27.501 12.1767 27.5199 12.2641 27.5149 12.3471C27.5098 12.4301 27.4797 12.5137 27.4262 12.5898L22.1432 20.1447C22.0658 20.2535 22.008 20.3679 21.9702 20.4886C21.9325 20.61 21.9136 20.7351 21.9136 20.8659V29.679C21.9136 29.7783 21.8866 29.8695 21.8388 29.9431L21.8275 29.9607C21.7797 30.0267 21.7118 30.0814 21.6276 30.1179C21.537 30.1575 21.4421 30.1694 21.354 30.1544C21.2666 30.1399 21.1817 30.0971 21.1088 30.0299L17.5901 26.7803C17.5379 26.7325 17.4989 26.6791 17.4744 26.6225C17.4499 26.5665 17.4373 26.5011 17.4373 26.4282V20.8653C17.4373 20.7339 17.4185 20.6087 17.3807 20.4874C17.3436 20.3679 17.2864 20.2547 17.2091 20.1441V20.1466Z" fill="#464646"/>
</g>
<defs>
<clipPath id="clip0_2737_24312">
<rect width="40" height="40" fill="white"/>
</clipPath>
</defs>
</svg>
