<svg width="24" height="24" viewBox="0 0 24 24" fill="none" xmlns="http://www.w3.org/2000/svg">
<path d="M18.2377 11.0078C17.9504 11.0078 17.7161 11.2421 17.7161 11.5294V19.432H13.755V14.55C13.755 14.2627 13.5207 14.0284 13.2334 14.0284H8.83135C8.54405 14.0284 8.30974 14.2627 8.30974 14.55V19.432H4.3479V11.5294C4.3479 11.2421 4.11358 11.0078 3.82629 11.0078C3.53899 11.0078 3.30469 11.2421 3.30469 11.5294V19.9536C3.30469 20.2409 3.539 20.4752 3.82629 20.4752H8.83135C9.11865 20.4752 9.35295 20.2409 9.35295 19.9536V15.0716H12.7118V19.9536C12.7118 20.2409 12.9461 20.4752 13.2334 20.4752H18.2385C18.5258 20.4752 18.7601 20.2409 18.7601 19.9536L18.7591 11.5294C18.7591 11.2401 18.525 11.0078 18.2377 11.0078Z" fill="#FFBB00"/>
<path d="M20.803 10.6192L11.352 3.11308C11.1615 2.96231 10.8926 2.96231 10.7051 3.11308L1.19914 10.6192C0.971956 10.7965 0.93325 11.1256 1.11356 11.3517C1.21748 11.4821 1.36927 11.5504 1.5231 11.5504C1.63517 11.5504 1.75028 11.5137 1.84605 11.4383L11.0292 4.18775L20.1541 11.4383C20.3813 11.6186 20.7073 11.5789 20.8866 11.3548C21.0669 11.1276 21.0271 10.7985 20.803 10.6192Z" fill="#FFBB00"/>
<path d="M17.9341 7.74508C18.2214 7.74508 18.4557 7.51076 18.4557 7.22347V4.0216C18.4557 3.7343 18.2214 3.5 17.9341 3.5H15.7325C15.4452 3.5 15.2109 3.73432 15.2109 4.0216V5.62309C15.2109 5.91039 15.4453 6.14469 15.7325 6.14469C16.0198 6.14469 16.2541 5.91038 16.2541 5.62309V4.54321H17.4125V7.22347C17.4125 7.51077 17.6447 7.74508 17.9341 7.74508Z" fill="#FFBB00"/>
</svg>
