<svg width="24" height="24" viewBox="0 0 24 24" fill="none" xmlns="http://www.w3.org/2000/svg">
<path d="M12.2518 22C12.7648 22 13.2624 21.7863 13.6186 21.4136C16.192 18.7196 20.5037 13.6867 20.5037 10.2519C20.5037 5.70114 16.8026 2 12.2519 2C7.70114 2 4 5.70338 4 10.2519C4 13.6834 8.31505 18.7175 10.8852 21.4136C11.2414 21.7863 11.7389 22 12.2518 22ZM12.2518 3.68343C15.8741 3.68343 18.8202 6.62952 18.8202 10.2518C18.8202 12.3003 16.421 16.0377 12.4008 20.252C12.3504 20.3057 12.2912 20.3166 12.2518 20.3166C12.2123 20.3166 12.1531 20.3057 12.1027 20.252C8.08256 16.0377 5.68331 12.3003 5.68331 10.2518C5.68331 6.62952 8.62955 3.68343 12.2518 3.68343Z" fill="#FFBB00"/>
<path d="M15.5704 10.254C15.5704 8.42472 14.0831 6.9375 12.254 6.9375C10.4248 6.9375 8.9375 8.4248 8.9375 10.254C8.9375 12.0831 10.4248 13.5704 12.254 13.5704C14.0831 13.5704 15.5704 12.0831 15.5704 10.254ZM10.6207 10.254C10.6207 9.35305 11.3528 8.6209 12.2538 8.6209C13.1547 8.6209 13.8868 9.35305 13.8868 10.254C13.8868 11.1549 13.1547 11.887 12.2538 11.887C11.3528 11.887 10.6207 11.1549 10.6207 10.254Z" fill="#FFBB00"/>
</svg>
