<svg width="24" height="24" viewBox="0 0 24 24" fill="none" xmlns="http://www.w3.org/2000/svg">
<path d="M12.0019 13.3755H12.8145C13.0779 13.3755 13.2928 13.1607 13.2928 12.8972C13.2928 12.6338 13.0779 12.419 12.8145 12.419H12.4801V12.2751C12.4801 12.0117 12.2653 11.7969 12.0019 11.7969C11.7384 11.7969 11.5236 12.0117 11.5236 12.2751V12.5143C11.0453 12.7058 10.7109 13.1597 10.7109 13.7099C10.7109 14.4273 11.2845 15.0008 12.0019 15.0008C12.1933 15.0008 12.3363 15.1447 12.3363 15.3352C12.3363 15.5267 12.1924 15.6696 12.0019 15.6696H11.1892C10.9258 15.6696 10.7109 15.8845 10.7109 16.1479C10.7109 16.4113 10.9258 16.6262 11.1892 16.6262L11.5236 16.628V16.7476C11.5236 17.011 11.7384 17.2259 12.0019 17.2259C12.2653 17.2259 12.4801 17.011 12.4801 16.7476V16.5085C12.9584 16.317 13.2928 15.863 13.2928 15.3128C13.2928 14.5954 12.7193 14.0219 12.0019 14.0219C11.8104 14.0219 11.6675 13.878 11.6675 13.6875C11.6675 13.4951 11.8104 13.3755 12.0019 13.3755Z" fill="#FFBB00"/>
<path d="M11.9959 10.0273C9.53261 10.0273 7.5 12.0357 7.5 14.4988C7.5 16.9621 9.50831 18.9947 11.9959 18.9947C14.4824 18.9947 16.4918 16.9864 16.4918 14.5232C16.4918 12.0368 14.4592 10.0273 11.9959 10.0273ZM11.9959 18.0382C10.0586 18.0382 8.45652 16.4596 8.45652 14.4988C8.45652 12.5382 10.0585 10.9839 11.9959 10.9839C13.9333 10.9839 15.5353 12.5625 15.5353 14.4988C15.5353 16.4362 13.9333 18.0382 11.9959 18.0382Z" fill="#FFBB00"/>
<path d="M21.7323 8.08833L20.4647 3.99872C20.3452 3.64003 20.106 3.32897 19.7716 3.16177C19.4372 2.99457 19.0543 2.94692 18.6713 3.06649L2.55435 8.08823H2.43478C1.64546 8.08823 1 8.73369 1 9.52301V19.5189C1 20.3082 1.64546 20.9537 2.43478 20.9537H21.5652C22.3545 20.9537 23 20.3082 23 19.5189V9.52301C23 8.78132 22.4497 8.1836 21.7323 8.08833ZM18.9589 3.97553C19.0785 3.92789 19.2223 3.95124 19.3176 3.99981C19.4129 4.04745 19.5091 4.16702 19.5567 4.28658L20.7524 8.08827H5.75817L18.9589 3.97553ZM22.0432 19.4946C22.0432 19.758 21.8283 19.9729 21.5649 19.9729H2.4345C2.17107 19.9729 1.95623 19.758 1.95623 19.4946V9.52311C1.95623 9.25969 2.17108 9.04485 2.4345 9.04485H21.5649C21.8284 9.04485 22.0432 9.2597 22.0432 9.52311V19.4946Z" fill="#FFBB00"/>
<path d="M19.2629 13.0859C18.4736 13.0859 17.8281 13.7314 17.8281 14.5207C17.8281 15.31 18.4736 15.9555 19.2629 15.9555C20.0522 15.9555 20.6977 15.31 20.6977 14.5207C20.6977 13.7314 20.0522 13.0859 19.2629 13.0859ZM19.2629 14.999C18.9995 14.999 18.7846 14.7841 18.7846 14.5207C18.7846 14.2573 18.9995 14.0425 19.2629 14.0425C19.5263 14.0425 19.7412 14.2573 19.7412 14.5207C19.7412 14.7841 19.5263 14.999 19.2629 14.999Z" fill="#FFBB00"/>
<path d="M4.73166 13.0859C3.94234 13.0859 3.29688 13.7314 3.29688 14.5207C3.29688 15.31 3.94234 15.9555 4.73166 15.9555C5.52098 15.9555 6.16644 15.31 6.16644 14.5207C6.16644 13.7314 5.52005 13.0859 4.73166 13.0859ZM4.73166 14.999C4.46823 14.999 4.2534 14.7841 4.2534 14.5207C4.2534 14.2573 4.46824 14.0425 4.73166 14.0425C4.99508 14.0425 5.20992 14.2573 5.20992 14.5207C5.20992 14.7841 4.99414 14.999 4.73166 14.999Z" fill="#FFBB00"/>
</svg>
