<svg width="24" height="24" viewBox="0 0 24 24" fill="none" xmlns="http://www.w3.org/2000/svg">
<path fill-rule="evenodd" clip-rule="evenodd" d="M11.6826 9.40108C15.2091 9.40108 18.0945 12.4408 18.0945 16.1558C18.0945 18.4795 17.5716 21 14.6237 21H8.74126C7.22439 21 6.34455 20.3262 5.84073 19.3359L5.83993 19.3363C5.37731 18.4261 5.2707 17.268 5.2707 16.156C5.2707 12.526 8.07743 9.40108 11.6826 9.40108ZM5.3447 6.29535C4.04965 6.29535 3 7.34539 3 8.64025C3 10.7223 5.52931 11.772 7.00278 10.2983C8.47624 8.82466 7.427 6.29535 5.3447 6.29535ZM6.25414 7.73081C5.44611 6.92277 4.05865 7.498 4.05865 8.64025C4.05865 9.7823 5.44591 10.3577 6.25414 9.54969C6.75637 9.04747 6.75637 8.23303 6.25414 7.73081ZM19.1535 9.07227C18.1341 9.07227 17.3074 9.89891 17.3074 10.9184C17.3074 12.5574 19.2987 13.3837 20.4588 12.2236C21.619 11.0636 20.7928 9.07227 19.1535 9.07227ZM19.7101 10.3617C18.9769 9.62849 17.8635 10.7419 18.5967 11.4752C19.3301 12.2084 20.4436 11.095 19.7101 10.3617ZM16.0494 4.79648C14.7863 4.79648 13.7621 5.82053 13.7621 7.08378C13.7621 9.11527 16.2298 10.1385 17.6669 8.70125C19.1043 7.26359 18.0803 4.79648 16.0494 4.79648ZM16.9182 6.21514C17.398 6.69496 17.398 7.4728 16.9182 7.95262C16.1464 8.72445 14.8209 8.17523 14.8209 7.08378C14.8207 5.99273 16.146 5.44311 16.9182 6.21514ZM10.3955 3C8.87146 3 7.63581 4.23566 7.63581 5.75992C7.63581 8.21063 10.6127 9.44569 12.347 7.71141C14.0813 5.97693 12.8462 3 10.3955 3ZM11.5984 4.55687C12.2626 5.2211 12.2626 6.29835 11.5984 6.96258C10.5297 8.03122 8.69465 7.27059 8.69465 5.75972C8.69465 4.24886 10.5297 3.48822 11.5984 4.55687ZM17.0356 16.156C17.0356 13.0232 14.6267 10.4599 11.6826 10.4599C8.65885 10.4599 6.32935 13.1072 6.32935 16.156C6.32935 17.9317 6.54636 19.9414 8.74126 19.9414H14.6237C16.814 19.9412 17.0356 17.9445 17.0356 16.156Z" fill="#FFBB00"/>
</svg>
